<svg width="21" height="25" viewBox="0 0 21 25" fill="none" xmlns="http://www.w3.org/2000/svg">
<path d="M11.25 9.31001C12.3625 9.11411 13.3639 8.48996 14.0555 7.56126C14.7471 6.63256 15.0786 5.46707 14.9842 4.29578C14.8899 3.12448 14.3766 2.03285 13.546 1.23722C12.7155 0.441585 11.6283 1.52588e-05 10.5 1.52588e-05C9.37167 1.52588e-05 8.28451 0.441585 7.45397 1.23722C6.62343 2.03285 6.11012 3.12448 6.01576 4.29578C5.9214 5.46707 6.25289 6.63256 6.94452 7.56126C7.63615 8.48996 8.63745 9.11411 9.75 9.31001V14.0619H6.75C6.15326 14.0619 5.58097 14.3088 5.15901 14.7484C4.73705 15.1879 4.5 15.7841 4.5 16.4058V17.187H16.5V16.4058C16.5 15.7841 16.2629 15.1879 15.841 14.7484C15.419 14.3088 14.8467 14.0619 14.25 14.0619H11.25V9.31001ZM0 21.8748C0 21.046 0.31607 20.2511 0.878679 19.665C1.44129 19.0789 2.20435 18.7496 3 18.7496H18C18.7957 18.7496 19.5587 19.0789 20.1213 19.665C20.6839 20.2511 21 21.046 21 21.8748V24.2187C21 24.4259 20.921 24.6247 20.7803 24.7712C20.6397 24.9177 20.4489 25 20.25 25H0.75C0.551088 25 0.360322 24.9177 0.21967 24.7712C0.0790178 24.6247 0 24.4259 0 24.2187V21.8748Z" fill="#1D1D1B"/>
</svg>
