<svg width="19" height="25" viewBox="0 0 19 25" fill="none" xmlns="http://www.w3.org/2000/svg">
<path fill-rule="evenodd" clip-rule="evenodd" d="M19 1.31579C19 0.96682 18.857 0.632144 18.6025 0.385386C18.348 0.138627 18.0028 0 17.6429 0C17.2829 0 16.9377 0.138627 16.6832 0.385386C16.4287 0.632144 16.2857 0.96682 16.2857 1.31579V23.6842C16.2857 24.0332 16.4287 24.3679 16.6832 24.6146C16.9377 24.8614 17.2829 25 17.6429 25C18.0028 25 18.348 24.8614 18.6025 24.6146C18.857 24.3679 19 24.0332 19 23.6842V1.31579ZM9.5 0C9.85994 0 10.2051 0.138627 10.4596 0.385386C10.7142 0.632144 10.8571 0.96682 10.8571 1.31579V23.6842C10.8571 24.0332 10.7142 24.3679 10.4596 24.6146C10.2051 24.8614 9.85994 25 9.5 25C9.14006 25 8.79487 24.8614 8.54036 24.6146C8.28584 24.3679 8.14286 24.0332 8.14286 23.6842V1.31579C8.14286 0.96682 8.28584 0.632144 8.54036 0.385386C8.79487 0.138627 9.14006 0 9.5 0ZM1.35714 0C1.71708 0 2.06227 0.138627 2.31679 0.385386C2.5713 0.632144 2.71429 0.96682 2.71429 1.31579V23.6842C2.71429 24.0332 2.5713 24.3679 2.31679 24.6146C2.06227 24.8614 1.71708 25 1.35714 25C0.997206 25 0.652012 24.8614 0.397498 24.6146C0.142985 24.3679 0 24.0332 0 23.6842V1.31579C0 0.96682 0.142985 0.632144 0.397498 0.385386C0.652012 0.138627 0.997206 0 1.35714 0Z" fill="#1D1D1B"/>
</svg>
