<svg width="25" height="25" viewBox="0 0 25 25" fill="none" xmlns="http://www.w3.org/2000/svg">
<path d="M16.6667 12.5C16.6667 11.3498 16.2598 10.3678 15.446 9.55404C14.6322 8.74023 13.6502 8.33333 12.5 8.33333C11.3498 8.33333 10.3678 8.74023 9.55404 9.55404C8.74023 10.3678 8.33333 11.3498 8.33333 12.5C8.33333 13.6502 8.74023 14.6322 9.55404 15.446C10.3678 16.2598 11.3498 16.6667 12.5 16.6667C13.6502 16.6667 14.6322 16.2598 15.446 15.446C16.2598 14.6322 16.6667 13.6502 16.6667 12.5ZM25 10.7259V14.3392C25 14.4694 24.9566 14.5942 24.8698 14.7135C24.783 14.8329 24.6745 14.9034 24.5443 14.9251L21.5332 15.3809C21.327 15.9668 21.1154 16.4605 20.8984 16.862C21.2782 17.4045 21.8587 18.1532 22.64 19.1081C22.7485 19.2383 22.8027 19.3739 22.8027 19.515C22.8027 19.656 22.7539 19.7808 22.6562 19.8893C22.3633 20.2908 21.8262 20.8767 21.0449 21.6471C20.2637 22.4175 19.7537 22.8027 19.515 22.8027C19.3848 22.8027 19.2437 22.7539 19.0918 22.6562L16.8457 20.8984C16.3683 21.148 15.8746 21.3542 15.3646 21.5169C15.191 22.9926 15.0336 24.0017 14.8926 24.5443C14.8166 24.8481 14.6213 25 14.3066 25H10.6934C10.5414 25 10.4085 24.9539 10.2946 24.8617C10.1807 24.7694 10.1183 24.6528 10.1074 24.5117L9.65169 21.5169C9.12001 21.3433 8.63173 21.1426 8.18685 20.9147L5.89193 22.6562C5.78342 22.7539 5.64779 22.8027 5.48503 22.8027C5.33312 22.8027 5.19748 22.7431 5.07812 22.6237C3.71094 21.3867 2.81576 20.4753 2.39258 19.8893C2.31662 19.7808 2.27865 19.656 2.27865 19.515C2.27865 19.3848 2.32205 19.26 2.40885 19.1406C2.57161 18.9128 2.84831 18.552 3.23893 18.0583C3.62956 17.5646 3.92253 17.1821 4.11784 16.9108C3.82487 16.3683 3.60243 15.8312 3.45052 15.2995L0.472005 14.86C0.330946 14.8383 0.217014 14.7705 0.130208 14.6566C0.0434028 14.5426 0 14.4151 0 14.2741V10.6608C0 10.5306 0.0434028 10.4058 0.130208 10.2865C0.217014 10.1671 0.320095 10.0966 0.439453 10.0749L3.4668 9.61914C3.61871 9.12001 3.8303 8.62088 4.10156 8.12174C3.66753 7.50325 3.08702 6.75456 2.36003 5.87565C2.25152 5.74544 2.19727 5.61523 2.19727 5.48503C2.19727 5.37652 2.24609 5.25174 2.34375 5.11068C2.62587 4.72005 3.16026 4.13683 3.94694 3.361C4.73362 2.58518 5.24631 2.19727 5.48503 2.19727C5.62608 2.19727 5.76714 2.25152 5.9082 2.36003L8.1543 4.10156C8.63173 3.852 9.12543 3.64583 9.63542 3.48307C9.80903 2.00738 9.96636 0.998264 10.1074 0.455729C10.1834 0.15191 10.3787 0 10.6934 0H14.3066C14.4585 0 14.5915 0.0461155 14.7054 0.138346C14.8193 0.230577 14.8817 0.347222 14.8926 0.488281L15.3483 3.48307C15.88 3.65668 16.3683 3.85742 16.8132 4.08529L19.1243 2.34375C19.222 2.24609 19.3522 2.19727 19.515 2.19727C19.656 2.19727 19.7917 2.25152 19.9219 2.36003C21.3216 3.65126 22.2168 4.57357 22.6074 5.12695C22.6834 5.21376 22.7214 5.33312 22.7214 5.48503C22.7214 5.61523 22.6779 5.74002 22.5911 5.85938C22.4284 6.08724 22.1517 6.44802 21.7611 6.94173C21.3704 7.43544 21.0775 7.81792 20.8822 8.08919C21.1643 8.63173 21.3867 9.16341 21.5495 9.68424L24.528 10.14C24.6691 10.1617 24.783 10.2295 24.8698 10.3434C24.9566 10.4574 25 10.5849 25 10.7259Z" fill="#1D1D1B"/>
</svg>
