<svg width="25" height="20" viewBox="0 0 25 20" fill="none" xmlns="http://www.w3.org/2000/svg">
<path d="M4.16667 4H6.25V16H4.16667V4ZM7.29167 4H8.33333V16H7.29167V4ZM9.375 4H12.5V16H9.375V4ZM13.5417 4H14.5833V16H13.5417V4ZM16.6667 4H18.75V16H16.6667V4ZM19.7917 4H20.8333V16H19.7917V4ZM2.08333 2V6H0V2C0 1.46957 0.219493 0.960859 0.610194 0.585786C1.0009 0.210714 1.5308 0 2.08333 0H6.25V2H2.08333ZM22.9167 0C23.4692 0 23.9991 0.210714 24.3898 0.585786C24.7805 0.960859 25 1.46957 25 2V6H22.9167V2H18.75V0H22.9167ZM2.08333 14V18H6.25V20H2.08333C1.5308 20 1.0009 19.7893 0.610194 19.4142C0.219493 19.0391 0 18.5304 0 18V14H2.08333ZM22.9167 18V14H25V18C25 18.5304 24.7805 19.0391 24.3898 19.4142C23.9991 19.7893 23.4692 20 22.9167 20H18.75V18H22.9167Z" fill="#1D1D1B"/>
</svg>
