<svg width="85" height="26" viewBox="0 0 85 26" fill="none" xmlns="http://www.w3.org/2000/svg">
<rect width="85" height="26"/>
<path d="M5.78456 2.21294C5.33173 1.7833 4.83974 1.37832 4.29777 1H42.5H80.7752C80.2457 1.38546 79.7719 1.79912 79.3415 2.23914C78.0697 3.53941 77.2207 5.02783 76.4371 6.54911C76.2657 6.88181 76.0965 7.21775 75.9258 7.55666C74.5331 10.3216 73.0411 13.2838 69.465 16.2909L69.438 16.3136L69.4127 16.3381C62.4739 23.0631 52.4119 25 42.5 25C32.1147 25 23.3078 23.0744 16.3573 16.3381L16.3369 16.3184L16.3154 16.2998C12.9463 13.3868 11.3069 10.515 9.76992 7.82267C9.51525 7.37655 9.26339 6.93536 9.00694 6.49972C8.10841 4.97338 7.14043 3.49938 5.78456 2.21294Z" fill="#52405C" stroke="#1D1D1B" stroke-width="2"/>
</svg>
