<svg width="222" height="263" viewBox="0 0 222 263" fill="none" xmlns="http://www.w3.org/2000/svg">
<path d="M212 3L124 18C123.671 17.9636 16.3291 2.46361 16 2.5L4.00001 0.5C2 1 0.729432 2.54521 0.802558 4.76478L1.20475 17.5364C1.27788 19.7559 2.95978 21.5389 5.15356 21.7936L19.0475 23.9404C21.4973 53.0494 35.1718 216.315 36.3419 226.139C37.6216 236.946 37.2925 239.384 45.702 242.04C53.7825 244.587 102.009 258.45 109.468 259.942C116.927 261.434 120.218 261.325 127.567 259.833C141.79 256.958 168.444 252.265 174.148 250.991C180.291 249.645 181.241 247.061 181.717 238.838C182.192 230.906 196.378 62.2915 199.413 26.1963L212.247 23.6857C214.77 22.776 215.611 21.0659 215.501 18.0458L215.757 7.16627C215.83 4.91032 214.377 3.14555 212 3Z" fill="#7E5842"/>
<path d="M199.669 229.523C198.536 242.222 189.943 251.828 180.4 250.991C170.894 250.154 164.057 239.202 165.19 226.503C166.324 213.805 174.916 204.199 184.459 205.035C193.965 205.836 200.803 216.825 199.669 229.523Z" fill="#7E5842" stroke="#F0F0F0" stroke-width="6" stroke-miterlimit="10"/>
<path d="M218.316 20.0837C218.316 23.2857 213.344 24.0499 211.004 24.5229L159.413 35.0749" stroke="#F0F0F0" stroke-width="6" stroke-miterlimit="10" stroke-linecap="round" stroke-linejoin="round"/>
<path d="M200.108 229.887C198.974 242.586 190.382 252.192 180.839 251.355C171.333 250.518 164.495 239.566 165.629 226.867C166.762 214.168 175.355 204.562 184.898 205.399C194.404 206.2 201.205 217.188 200.108 229.887Z" stroke="#F0F0F0" stroke-width="0.75" stroke-miterlimit="10" stroke-linecap="round" stroke-linejoin="round"/>
<path d="M117.622 93.766L117.329 259.433" stroke="#F0F0F0" stroke-width="6" stroke-miterlimit="10" stroke-linecap="round" stroke-linejoin="round"/>
<path d="M66.5795 33.0737L5.117 24.814" stroke="#F0F0F0" stroke-width="6" stroke-miterlimit="10" stroke-linecap="round" stroke-linejoin="round"/>
<path d="M196.598 8.74877L123.325 20.9018L18.9378 5.94702" stroke="#F0F0F0" stroke-width="6" stroke-miterlimit="10" stroke-linecap="round" stroke-linejoin="round"/>
</svg>
