<svg width="320" height="350" viewBox="0 0 320 350" fill="none" xmlns="http://www.w3.org/2000/svg">
<path d="M234.113 330.752C219.781 331.188 207.057 316.598 206.033 323.802L168.519 314.596L78.1718 290.654L0 305.318L145.96 347.89C146.947 348.254 148.665 348.69 150.823 349.018C155.722 349.927 162.45 350.437 168.629 349.418L212.614 340.831C213.601 341.34 216.088 342.25 217.77 342.432C223.327 343.087 226.399 342.104 227.605 341.74C228.848 341.377 234.918 339.812 236.892 338.72C238.867 337.629 248.446 330.352 234.113 330.752Z" fill="#1D1D1B"/>
<path d="M259.634 79.6861L159.927 59.4917C150.128 72.3361 160.475 76.4113 160.475 76.4113L250.091 89.5104C252.724 89.7287 261.024 89.7651 263.839 89.0738C264.607 88.8555 259.634 79.6861 259.634 79.6861Z" fill="#F0F0F0"/>
<path d="M313.016 8.91467C290.676 45.1554 260.256 81.6145 260.256 81.6145L263.839 89.0373C266.654 88.6007 275.722 77.8304 276.417 77.0299C305.96 43.3361 302.925 42.7903 317.66 21.8318C319.963 18.5207 318.684 14.9912 315.978 12.0439L313.016 8.91467Z" fill="#F0F0F0"/>
<path d="M163.181 69.3888C161.207 68.9521 154.662 66.4415 161.316 57.3085C169.762 45.7376 190.932 20.2308 210.238 3.63867C211.7 2.36515 215.064 -0.0363437 222.048 4.25929e-05L304.351 5.67631C310.201 5.89463 313.053 8.95108 313.053 8.95108C316.271 11.862 314.589 16.192 312.176 19.4303C304.863 29.3638 291.773 49.3399 264.717 78.8856C260.293 83.6886 254.771 81.9784 250.347 81.5782C250.347 81.5054 164.534 69.6798 163.181 69.3888Z" fill="#7E5842"/>
<path d="M254.735 87.7638L150.64 74.7739C150.311 74.7375 149.982 74.7739 149.653 74.8102L47.6051 85.2531C45.3748 85.5806 43.7295 87.5455 43.8026 89.765L44.2048 102.537C44.2779 104.756 45.9598 106.539 48.1536 106.794L62.0475 108.941C64.4973 138.05 78.1719 301.315 79.3419 311.139C80.6216 321.946 80.2925 324.384 88.702 327.04C96.7825 329.587 145.009 343.45 152.468 344.942C159.927 346.434 163.218 346.325 170.567 344.833C184.79 341.959 211.444 337.265 217.148 335.991C223.291 334.645 224.241 332.062 224.717 323.838C225.192 315.906 239.378 147.292 242.413 111.197L255.247 108.686C257.77 107.776 258.611 106.066 258.501 103.046L258.757 92.1665C258.83 89.9106 257.112 87.9093 254.735 87.7638Z" fill="#7E5842"/>
<path d="M102.633 96.4966C102.633 96.4966 150.603 103.592 157.733 104.538C164.863 105.448 170.896 104.538 170.896 104.538L215.393 97.0787L159.488 90.8567L102.633 96.4966Z" fill="#F0F0F0"/>
<path d="M309.835 9.71521C309.835 9.71521 319.671 15.1004 318.867 20.0125C318.208 23.9059 271.115 89.6923 263.912 90.4201C260.548 90.8931 250.091 89.474 250.091 89.474" stroke="#7E5842" stroke-width="6" stroke-miterlimit="10" stroke-linecap="round" stroke-linejoin="round"/>
<path d="M167.13 79.2495C167.13 79.2495 156.526 76.0475 156.526 68.9157C156.526 61.784 175.503 44.1367 175.503 44.1367" stroke="#7E5842" stroke-width="6" stroke-miterlimit="10" stroke-linecap="round" stroke-linejoin="round"/>
</svg>
